<svg xmlns="http://www.w3.org/2000/svg" xmlns:xlink="http://www.w3.org/1999/xlink" width="576" zoomAndPan="magnify" viewBox="0 0 432 431.999984" height="576" preserveAspectRatio="xMidYMid meet" version="1.0"><defs><g/><clipPath id="934ece8e5f"><path d="M 310 189 L 340 189 L 340 218 L 310 218 Z M 310 189 " clip-rule="nonzero"/></clipPath><clipPath id="f7dd0b7767"><path d="M 310.550781 187.601562 L 339.015625 189.027344 L 337.59375 217.492188 L 309.128906 216.066406 Z M 310.550781 187.601562 " clip-rule="nonzero"/></clipPath><clipPath id="77da55a70e"><path d="M 310.550781 187.601562 L 339.015625 189.027344 L 337.59375 217.492188 L 309.128906 216.066406 Z M 310.550781 187.601562 " clip-rule="nonzero"/></clipPath><clipPath id="0016b5776d"><path d="M 207 246 L 332 246 L 332 246.332031 L 207 246.332031 Z M 301.085938 246.332031 L 332 246.332031 L 332 250 L 301.085938 250 Z M 207 246.332031 L 279.96875 246.332031 L 279.96875 250 L 207 250 Z M 207 246.332031 " clip-rule="nonzero"/></clipPath></defs><g clip-path="url(#934ece8e5f)"><g clip-path="url(#f7dd0b7767)"><g clip-path="url(#77da55a70e)"><path fill="#0f094f" d="M 310.785156 197.71875 C 310.0625 197.4375 310.074219 197.042969 310.84375 196.828125 L 338.070312 189.238281 C 338.824219 189.03125 339.230469 189.464844 338.984375 190.183594 L 329.996094 216.582031 C 329.746094 217.3125 329.316406 217.316406 329.039062 216.597656 L 324.5625 204.996094 L 333.542969 194.191406 L 321.894531 202.050781 Z M 310.785156 197.71875 " fill-opacity="1" fill-rule="nonzero"/></g></g></g><g fill="#000000" fill-opacity="1"><g transform="translate(92.770781, 211.156126)"><g><path d="M 10.265625 0.34375 C 8.640625 0.34375 7.171875 -0.0703125 5.859375 -0.90625 C 4.546875 -1.75 3.503906 -2.988281 2.734375 -4.625 C 1.960938 -6.269531 1.578125 -8.289062 1.578125 -10.6875 C 1.578125 -13.132812 1.972656 -15.171875 2.765625 -16.796875 C 3.554688 -18.429688 4.609375 -19.65625 5.921875 -20.46875 C 7.242188 -21.289062 8.6875 -21.703125 10.25 -21.703125 C 11.445312 -21.703125 12.445312 -21.5 13.25 -21.09375 C 14.050781 -20.6875 14.703125 -20.1875 15.203125 -19.59375 C 15.703125 -19 16.082031 -18.40625 16.34375 -17.8125 L 16.515625 -17.8125 L 16.515625 -28.5625 L 22.453125 -28.5625 L 22.453125 0 L 16.59375 0 L 16.59375 -3.4375 L 16.34375 -3.4375 C 16.070312 -2.832031 15.679688 -2.238281 15.171875 -1.65625 C 14.660156 -1.082031 14 -0.601562 13.1875 -0.21875 C 12.382812 0.15625 11.410156 0.34375 10.265625 0.34375 Z M 12.140625 -4.375 C 13.578125 -4.375 14.6875 -4.953125 15.46875 -6.109375 C 16.257812 -7.265625 16.65625 -8.796875 16.65625 -10.703125 C 16.65625 -12.617188 16.265625 -14.140625 15.484375 -15.265625 C 14.703125 -16.398438 13.585938 -16.96875 12.140625 -16.96875 C 10.671875 -16.96875 9.550781 -16.390625 8.78125 -15.234375 C 8.019531 -14.078125 7.640625 -12.566406 7.640625 -10.703125 C 7.640625 -8.835938 8.023438 -7.316406 8.796875 -6.140625 C 9.566406 -4.960938 10.679688 -4.375 12.140625 -4.375 Z M 12.140625 -4.375 "/></g></g></g><g fill="#000000" fill-opacity="1"><g transform="translate(117.711312, 211.156126)"><g><path d="M 12.125 0.421875 C 9.9375 0.421875 8.046875 -0.0234375 6.453125 -0.921875 C 4.867188 -1.816406 3.644531 -3.085938 2.78125 -4.734375 C 1.925781 -6.390625 1.5 -8.347656 1.5 -10.609375 C 1.5 -12.816406 1.925781 -14.75 2.78125 -16.40625 C 3.644531 -18.070312 4.851562 -19.367188 6.40625 -20.296875 C 7.96875 -21.234375 9.796875 -21.703125 11.890625 -21.703125 C 13.773438 -21.703125 15.476562 -21.300781 17 -20.5 C 18.519531 -19.695312 19.726562 -18.488281 20.625 -16.875 C 21.519531 -15.257812 21.96875 -13.238281 21.96875 -10.8125 L 21.96875 -9.1875 L 7.375 -9.1875 L 7.375 -9.171875 C 7.375 -7.578125 7.8125 -6.316406 8.6875 -5.390625 C 9.5625 -4.472656 10.742188 -4.015625 12.234375 -4.015625 C 13.222656 -4.015625 14.078125 -4.222656 14.796875 -4.640625 C 15.523438 -5.054688 16.039062 -5.675781 16.34375 -6.5 L 21.828125 -6.140625 C 21.410156 -4.148438 20.351562 -2.554688 18.65625 -1.359375 C 16.957031 -0.171875 14.78125 0.421875 12.125 0.421875 Z M 7.375 -12.875 L 16.375 -12.875 C 16.363281 -14.144531 15.953125 -15.191406 15.140625 -16.015625 C 14.335938 -16.847656 13.285156 -17.265625 11.984375 -17.265625 C 10.671875 -17.265625 9.585938 -16.835938 8.734375 -15.984375 C 7.890625 -15.128906 7.4375 -14.09375 7.375 -12.875 Z M 7.375 -12.875 "/></g></g></g><g fill="#000000" fill-opacity="1"><g transform="translate(141.174102, 211.156126)"><g><path d="M 20.1875 -15.3125 L 14.75 -14.96875 C 14.601562 -15.65625 14.226562 -16.242188 13.625 -16.734375 C 13.019531 -17.234375 12.203125 -17.484375 11.171875 -17.484375 C 10.242188 -17.484375 9.460938 -17.289062 8.828125 -16.90625 C 8.191406 -16.519531 7.878906 -16.003906 7.890625 -15.359375 C 7.878906 -14.847656 8.082031 -14.414062 8.5 -14.0625 C 8.914062 -13.71875 9.617188 -13.4375 10.609375 -13.21875 L 14.484375 -12.4375 C 18.609375 -11.59375 20.671875 -9.660156 20.671875 -6.640625 C 20.671875 -5.234375 20.257812 -4 19.4375 -2.9375 C 18.613281 -1.882812 17.488281 -1.0625 16.0625 -0.46875 C 14.632812 0.125 12.992188 0.421875 11.140625 0.421875 C 8.304688 0.421875 6.046875 -0.171875 4.359375 -1.359375 C 2.679688 -2.546875 1.703125 -4.160156 1.421875 -6.203125 L 7.265625 -6.515625 C 7.453125 -5.640625 7.878906 -4.976562 8.546875 -4.53125 C 9.222656 -4.082031 10.09375 -3.859375 11.15625 -3.859375 C 12.195312 -3.859375 13.035156 -4.0625 13.671875 -4.46875 C 14.304688 -4.882812 14.628906 -5.40625 14.640625 -6.03125 C 14.609375 -7.09375 13.691406 -7.804688 11.890625 -8.171875 L 8.1875 -8.90625 C 4.039062 -9.738281 1.976562 -11.78125 2 -15.03125 C 1.988281 -17.09375 2.8125 -18.71875 4.46875 -19.90625 C 6.125 -21.101562 8.328125 -21.703125 11.078125 -21.703125 C 13.773438 -21.703125 15.898438 -21.128906 17.453125 -19.984375 C 19.015625 -18.835938 19.925781 -17.28125 20.1875 -15.3125 Z M 20.1875 -15.3125 "/></g></g></g><g fill="#000000" fill-opacity="1"><g transform="translate(163.228845, 211.156126)"><g><path d="M 13.765625 -21.421875 L 13.765625 -16.953125 L 9.734375 -16.953125 L 9.734375 -6.578125 C 9.734375 -5.765625 9.914062 -5.210938 10.28125 -4.921875 C 10.65625 -4.628906 11.140625 -4.484375 11.734375 -4.484375 C 12.015625 -4.484375 12.296875 -4.507812 12.578125 -4.5625 C 12.859375 -4.613281 13.070312 -4.65625 13.21875 -4.6875 L 14.15625 -0.265625 C 13.851562 -0.171875 13.429688 -0.0625 12.890625 0.0625 C 12.359375 0.1875 11.707031 0.265625 10.9375 0.296875 C 8.78125 0.390625 7.046875 -0.078125 5.734375 -1.109375 C 4.429688 -2.140625 3.785156 -3.703125 3.796875 -5.796875 L 3.796875 -16.953125 L 0.859375 -16.953125 L 0.859375 -21.421875 L 3.796875 -21.421875 L 3.796875 -26.546875 L 9.734375 -26.546875 L 9.734375 -21.421875 Z M 13.765625 -21.421875 "/></g></g></g><g fill="#000000" fill-opacity="1"><g transform="translate(178.48035, 211.156126)"><g><path d="M 2.375 0 L 2.375 -21.421875 L 8.3125 -21.421875 L 8.3125 0 Z M 5.359375 -24.171875 C 4.484375 -24.171875 3.726562 -24.46875 3.09375 -25.0625 C 2.46875 -25.65625 2.15625 -26.363281 2.15625 -27.1875 C 2.15625 -28.019531 2.46875 -28.726562 3.09375 -29.3125 C 3.726562 -29.894531 4.484375 -30.1875 5.359375 -30.1875 C 6.242188 -30.1875 7 -29.894531 7.625 -29.3125 C 8.257812 -28.726562 8.578125 -28.019531 8.578125 -27.1875 C 8.578125 -26.363281 8.257812 -25.65625 7.625 -25.0625 C 7 -24.46875 6.242188 -24.171875 5.359375 -24.171875 Z M 5.359375 -24.171875 "/></g></g></g><g fill="#000000" fill-opacity="1"><g transform="translate(189.159197, 211.156126)"><g><path d="M 8.3125 -12.375 L 8.3125 0 L 2.375 0 L 2.375 -21.421875 L 8.03125 -21.421875 L 8.03125 -17.640625 L 8.28125 -17.640625 C 8.757812 -18.878906 9.554688 -19.863281 10.671875 -20.59375 C 11.785156 -21.332031 13.132812 -21.703125 14.71875 -21.703125 C 16.957031 -21.703125 18.75 -20.984375 20.09375 -19.546875 C 21.4375 -18.109375 22.109375 -16.140625 22.109375 -13.640625 L 22.109375 0 L 16.171875 0 L 16.171875 -12.578125 C 16.179688 -13.890625 15.847656 -14.914062 15.171875 -15.65625 C 14.492188 -16.394531 13.5625 -16.765625 12.375 -16.765625 C 11.164062 -16.765625 10.1875 -16.378906 9.4375 -15.609375 C 8.695312 -14.835938 8.320312 -13.757812 8.3125 -12.375 Z M 8.3125 -12.375 "/></g></g></g><g fill="#000000" fill-opacity="1"><g transform="translate(213.56997, 211.156126)"><g><path d="M 8.484375 0.40625 C 6.429688 0.40625 4.726562 -0.125 3.375 -1.1875 C 2.03125 -2.257812 1.359375 -3.859375 1.359375 -5.984375 C 1.359375 -7.578125 1.734375 -8.828125 2.484375 -9.734375 C 3.242188 -10.648438 4.234375 -11.316406 5.453125 -11.734375 C 6.679688 -12.160156 8 -12.441406 9.40625 -12.578125 C 11.269531 -12.765625 12.597656 -12.957031 13.390625 -13.15625 C 14.191406 -13.363281 14.59375 -13.8125 14.59375 -14.5 L 14.59375 -14.578125 C 14.59375 -15.460938 14.316406 -16.144531 13.765625 -16.625 C 13.210938 -17.113281 12.429688 -17.359375 11.421875 -17.359375 C 10.347656 -17.359375 9.492188 -17.125 8.859375 -16.65625 C 8.234375 -16.195312 7.816406 -15.609375 7.609375 -14.890625 L 2.125 -15.34375 C 2.53125 -17.289062 3.539062 -18.835938 5.15625 -19.984375 C 6.78125 -21.128906 8.878906 -21.703125 11.453125 -21.703125 C 13.035156 -21.703125 14.519531 -21.445312 15.90625 -20.9375 C 17.289062 -20.4375 18.40625 -19.65625 19.25 -18.59375 C 20.101562 -17.53125 20.53125 -16.148438 20.53125 -14.453125 L 20.53125 0 L 14.90625 0 L 14.90625 -2.96875 L 14.734375 -2.96875 C 14.210938 -1.976562 13.429688 -1.164062 12.390625 -0.53125 C 11.359375 0.09375 10.054688 0.40625 8.484375 0.40625 Z M 10.171875 -3.6875 C 11.472656 -3.6875 12.539062 -4.066406 13.375 -4.828125 C 14.21875 -5.585938 14.640625 -6.53125 14.640625 -7.65625 L 14.640625 -9.921875 C 14.410156 -9.765625 14.050781 -9.625 13.5625 -9.5 C 13.070312 -9.382812 12.550781 -9.28125 12 -9.1875 C 11.445312 -9.101562 10.953125 -9.03125 10.515625 -8.96875 C 9.472656 -8.820312 8.632812 -8.53125 8 -8.09375 C 7.363281 -7.65625 7.046875 -7.015625 7.046875 -6.171875 C 7.046875 -5.359375 7.335938 -4.738281 7.921875 -4.3125 C 8.515625 -3.894531 9.265625 -3.6875 10.171875 -3.6875 Z M 10.171875 -3.6875 "/></g></g></g><g fill="#000000" fill-opacity="1"><g transform="translate(236.349638, 211.156126)"><g><path d="M 13.765625 -21.421875 L 13.765625 -16.953125 L 9.734375 -16.953125 L 9.734375 -6.578125 C 9.734375 -5.765625 9.914062 -5.210938 10.28125 -4.921875 C 10.65625 -4.628906 11.140625 -4.484375 11.734375 -4.484375 C 12.015625 -4.484375 12.296875 -4.507812 12.578125 -4.5625 C 12.859375 -4.613281 13.070312 -4.65625 13.21875 -4.6875 L 14.15625 -0.265625 C 13.851562 -0.171875 13.429688 -0.0625 12.890625 0.0625 C 12.359375 0.1875 11.707031 0.265625 10.9375 0.296875 C 8.78125 0.390625 7.046875 -0.078125 5.734375 -1.109375 C 4.429688 -2.140625 3.785156 -3.703125 3.796875 -5.796875 L 3.796875 -16.953125 L 0.859375 -16.953125 L 0.859375 -21.421875 L 3.796875 -21.421875 L 3.796875 -26.546875 L 9.734375 -26.546875 L 9.734375 -21.421875 Z M 13.765625 -21.421875 "/></g></g></g><g fill="#000000" fill-opacity="1"><g transform="translate(251.601144, 211.156126)"><g><path d="M 2.375 0 L 2.375 -21.421875 L 8.3125 -21.421875 L 8.3125 0 Z M 5.359375 -24.171875 C 4.484375 -24.171875 3.726562 -24.46875 3.09375 -25.0625 C 2.46875 -25.65625 2.15625 -26.363281 2.15625 -27.1875 C 2.15625 -28.019531 2.46875 -28.726562 3.09375 -29.3125 C 3.726562 -29.894531 4.484375 -30.1875 5.359375 -30.1875 C 6.242188 -30.1875 7 -29.894531 7.625 -29.3125 C 8.257812 -28.726562 8.578125 -28.019531 8.578125 -27.1875 C 8.578125 -26.363281 8.257812 -25.65625 7.625 -25.0625 C 7 -24.46875 6.242188 -24.171875 5.359375 -24.171875 Z M 5.359375 -24.171875 "/></g></g></g><g fill="#000000" fill-opacity="1"><g transform="translate(262.279991, 211.156126)"><g><path d="M 12.046875 0.421875 C 9.878906 0.421875 8.007812 -0.0390625 6.4375 -0.96875 C 4.863281 -1.894531 3.644531 -3.1875 2.78125 -4.84375 C 1.925781 -6.5 1.5 -8.425781 1.5 -10.625 C 1.5 -12.832031 1.925781 -14.765625 2.78125 -16.421875 C 3.644531 -18.085938 4.863281 -19.382812 6.4375 -20.3125 C 8.007812 -21.238281 9.878906 -21.703125 12.046875 -21.703125 C 14.210938 -21.703125 16.082031 -21.238281 17.65625 -20.3125 C 19.226562 -19.382812 20.441406 -18.085938 21.296875 -16.421875 C 22.160156 -14.765625 22.59375 -12.832031 22.59375 -10.625 C 22.59375 -8.425781 22.160156 -6.5 21.296875 -4.84375 C 20.441406 -3.1875 19.226562 -1.894531 17.65625 -0.96875 C 16.082031 -0.0390625 14.210938 0.421875 12.046875 0.421875 Z M 12.078125 -4.1875 C 13.546875 -4.1875 14.65625 -4.796875 15.40625 -6.015625 C 16.164062 -7.242188 16.546875 -8.796875 16.546875 -10.671875 C 16.546875 -12.535156 16.164062 -14.082031 15.40625 -15.3125 C 14.65625 -16.550781 13.546875 -17.171875 12.078125 -17.171875 C 10.578125 -17.171875 9.445312 -16.550781 8.6875 -15.3125 C 7.925781 -14.082031 7.546875 -12.535156 7.546875 -10.671875 C 7.546875 -8.796875 7.925781 -7.242188 8.6875 -6.015625 C 9.445312 -4.796875 10.578125 -4.1875 12.078125 -4.1875 Z M 12.078125 -4.1875 "/></g></g></g><g fill="#000000" fill-opacity="1"><g transform="translate(286.370123, 211.156126)"><g><path d="M 8.3125 -12.375 L 8.3125 0 L 2.375 0 L 2.375 -21.421875 L 8.03125 -21.421875 L 8.03125 -17.640625 L 8.28125 -17.640625 C 8.757812 -18.878906 9.554688 -19.863281 10.671875 -20.59375 C 11.785156 -21.332031 13.132812 -21.703125 14.71875 -21.703125 C 16.957031 -21.703125 18.75 -20.984375 20.09375 -19.546875 C 21.4375 -18.109375 22.109375 -16.140625 22.109375 -13.640625 L 22.109375 0 L 16.171875 0 L 16.171875 -12.578125 C 16.179688 -13.890625 15.847656 -14.914062 15.171875 -15.65625 C 14.492188 -16.394531 13.5625 -16.765625 12.375 -16.765625 C 11.164062 -16.765625 10.1875 -16.378906 9.4375 -15.609375 C 8.695312 -14.835938 8.320312 -13.757812 8.3125 -12.375 Z M 8.3125 -12.375 "/></g></g></g><g fill="#000000" fill-opacity="1"><g transform="translate(310.780895, 211.156126)"><g><path d="M 5.84375 0.359375 C 4.925781 0.359375 4.132812 0.0351562 3.46875 -0.609375 C 2.8125 -1.265625 2.488281 -2.054688 2.5 -2.984375 C 2.488281 -3.890625 2.8125 -4.664062 3.46875 -5.3125 C 4.132812 -5.96875 4.925781 -6.296875 5.84375 -6.296875 C 6.738281 -6.296875 7.515625 -5.96875 8.171875 -5.3125 C 8.835938 -4.664062 9.175781 -3.890625 9.1875 -2.984375 C 9.175781 -2.054688 8.835938 -1.265625 8.171875 -0.609375 C 7.515625 0.0351562 6.738281 0.359375 5.84375 0.359375 Z M 5.84375 0.359375 "/></g></g></g><g clip-path="url(#0016b5776d)"><path fill="#000000" d="M 207.621094 246.707031 L 331.582031 246.707031 L 331.582031 249.707031 L 207.621094 249.707031 Z M 207.621094 246.707031 " fill-opacity="1" fill-rule="nonzero"/></g><g fill="#000000" fill-opacity="1"><g transform="translate(207.620382, 244.456358)"><g><path d="M 9.34375 0.328125 C 7.632812 0.328125 6.171875 -0.03125 4.953125 -0.75 C 3.734375 -1.476562 2.796875 -2.488281 2.140625 -3.78125 C 1.492188 -5.070312 1.171875 -6.554688 1.171875 -8.234375 C 1.171875 -9.929688 1.5 -11.421875 2.15625 -12.703125 C 2.8125 -13.992188 3.75 -15 4.96875 -15.71875 C 6.1875 -16.445312 7.632812 -16.8125 9.3125 -16.8125 C 10.757812 -16.8125 12.03125 -16.546875 13.125 -16.015625 C 14.21875 -15.492188 15.078125 -14.757812 15.703125 -13.8125 C 16.335938 -12.863281 16.6875 -11.75 16.75 -10.46875 L 12.40625 -10.46875 C 12.28125 -11.289062 11.957031 -11.957031 11.4375 -12.46875 C 10.914062 -12.976562 10.234375 -13.234375 9.390625 -13.234375 C 8.328125 -13.234375 7.46875 -12.800781 6.8125 -11.9375 C 6.164062 -11.082031 5.84375 -9.867188 5.84375 -8.296875 C 5.84375 -6.710938 6.164062 -5.484375 6.8125 -4.609375 C 7.457031 -3.742188 8.316406 -3.3125 9.390625 -3.3125 C 10.179688 -3.3125 10.847656 -3.550781 11.390625 -4.03125 C 11.929688 -4.507812 12.269531 -5.191406 12.40625 -6.078125 L 16.75 -6.078125 C 16.675781 -4.816406 16.332031 -3.703125 15.71875 -2.734375 C 15.101562 -1.765625 14.253906 -1.007812 13.171875 -0.46875 C 12.085938 0.0625 10.8125 0.328125 9.34375 0.328125 Z M 9.34375 0.328125 "/></g></g></g><g fill="#000000" fill-opacity="1"><g transform="translate(225.495709, 244.456358)"><g><path d="M 6.4375 -9.59375 L 6.4375 0 L 1.84375 0 L 1.84375 -22.140625 L 6.3125 -22.140625 L 6.3125 -13.671875 L 6.5 -13.671875 C 6.882812 -14.648438 7.492188 -15.414062 8.328125 -15.96875 C 9.160156 -16.53125 10.207031 -16.8125 11.46875 -16.8125 C 13.195312 -16.8125 14.585938 -16.253906 15.640625 -15.140625 C 16.691406 -14.035156 17.210938 -12.515625 17.203125 -10.578125 L 17.203125 0 L 12.609375 0 L 12.609375 -9.75 C 12.609375 -10.769531 12.347656 -11.5625 11.828125 -12.125 C 11.304688 -12.695312 10.578125 -12.984375 9.640625 -12.984375 C 8.703125 -12.984375 7.9375 -12.6875 7.34375 -12.09375 C 6.75 -11.5 6.445312 -10.664062 6.4375 -9.59375 Z M 6.4375 -9.59375 "/></g></g></g><g fill="#000000" fill-opacity="1"><g transform="translate(244.495005, 244.456358)"><g><path d="M 6.578125 0.3125 C 4.984375 0.3125 3.664062 -0.0976562 2.625 -0.921875 C 1.582031 -1.753906 1.0625 -2.992188 1.0625 -4.640625 C 1.0625 -5.878906 1.351562 -6.847656 1.9375 -7.546875 C 2.519531 -8.253906 3.285156 -8.769531 4.234375 -9.09375 C 5.179688 -9.425781 6.203125 -9.644531 7.296875 -9.75 C 8.734375 -9.894531 9.757812 -10.046875 10.375 -10.203125 C 11 -10.359375 11.3125 -10.703125 11.3125 -11.234375 L 11.3125 -11.3125 C 11.3125 -11.988281 11.097656 -12.515625 10.671875 -12.890625 C 10.242188 -13.265625 9.640625 -13.453125 8.859375 -13.453125 C 8.023438 -13.453125 7.363281 -13.269531 6.875 -12.90625 C 6.382812 -12.550781 6.0625 -12.097656 5.90625 -11.546875 L 1.640625 -11.890625 C 1.960938 -13.398438 2.75 -14.597656 4 -15.484375 C 5.257812 -16.367188 6.882812 -16.8125 8.875 -16.8125 C 10.101562 -16.8125 11.253906 -16.617188 12.328125 -16.234375 C 13.398438 -15.847656 14.265625 -15.238281 14.921875 -14.40625 C 15.585938 -13.582031 15.921875 -12.515625 15.921875 -11.203125 L 15.921875 0 L 11.546875 0 L 11.546875 -2.296875 L 11.421875 -2.296875 C 11.015625 -1.523438 10.410156 -0.894531 9.609375 -0.40625 C 8.804688 0.0703125 7.796875 0.3125 6.578125 0.3125 Z M 7.890625 -2.859375 C 8.898438 -2.859375 9.726562 -3.148438 10.375 -3.734375 C 11.019531 -4.328125 11.34375 -5.0625 11.34375 -5.9375 L 11.34375 -7.703125 C 11.164062 -7.578125 10.882812 -7.46875 10.5 -7.375 C 10.125 -7.28125 9.722656 -7.195312 9.296875 -7.125 C 8.867188 -7.0625 8.488281 -7.003906 8.15625 -6.953125 C 7.34375 -6.835938 6.6875 -6.609375 6.1875 -6.265625 C 5.695312 -5.929688 5.453125 -5.4375 5.453125 -4.78125 C 5.453125 -4.15625 5.679688 -3.675781 6.140625 -3.34375 C 6.597656 -3.019531 7.179688 -2.859375 7.890625 -2.859375 Z M 7.890625 -2.859375 "/></g></g></g><g fill="#000000" fill-opacity="1"><g transform="translate(262.154187, 244.456358)"><g><path d="M 6.4375 -9.59375 L 6.4375 0 L 1.84375 0 L 1.84375 -16.609375 L 6.21875 -16.609375 L 6.21875 -13.671875 L 6.421875 -13.671875 C 6.796875 -14.640625 7.410156 -15.40625 8.265625 -15.96875 C 9.128906 -16.53125 10.175781 -16.8125 11.40625 -16.8125 C 13.144531 -16.8125 14.535156 -16.253906 15.578125 -15.140625 C 16.617188 -14.035156 17.140625 -12.515625 17.140625 -10.578125 L 17.140625 0 L 12.53125 0 L 12.53125 -9.75 C 12.539062 -10.769531 12.28125 -11.5625 11.75 -12.125 C 11.226562 -12.695312 10.507812 -12.984375 9.59375 -12.984375 C 8.65625 -12.984375 7.894531 -12.6875 7.3125 -12.09375 C 6.738281 -11.5 6.445312 -10.664062 6.4375 -9.59375 Z M 6.4375 -9.59375 "/></g></g></g><g fill="#000000" fill-opacity="1"><g transform="translate(281.077827, 244.456358)"><g><path d="M 9.3125 6.46875 C 7.082031 6.46875 5.328125 6.023438 4.046875 5.140625 C 2.773438 4.265625 2.003906 3.203125 1.734375 1.953125 L 5.984375 1.375 C 6.171875 1.820312 6.535156 2.226562 7.078125 2.59375 C 7.628906 2.96875 8.410156 3.15625 9.421875 3.15625 C 10.421875 3.15625 11.25 2.914062 11.90625 2.4375 C 12.5625 1.96875 12.890625 1.1875 12.890625 0.09375 L 12.890625 -2.9375 L 12.6875 -2.9375 C 12.382812 -2.25 11.847656 -1.625 11.078125 -1.0625 C 10.316406 -0.507812 9.273438 -0.234375 7.953125 -0.234375 C 6.703125 -0.234375 5.566406 -0.523438 4.546875 -1.109375 C 3.535156 -1.691406 2.726562 -2.582031 2.125 -3.78125 C 1.519531 -4.976562 1.21875 -6.492188 1.21875 -8.328125 C 1.21875 -10.222656 1.523438 -11.796875 2.140625 -13.046875 C 2.753906 -14.296875 3.570312 -15.234375 4.59375 -15.859375 C 5.613281 -16.492188 6.726562 -16.8125 7.9375 -16.8125 C 8.875 -16.8125 9.65625 -16.65625 10.28125 -16.34375 C 10.90625 -16.03125 11.410156 -15.644531 11.796875 -15.1875 C 12.191406 -14.726562 12.488281 -14.269531 12.6875 -13.8125 L 12.859375 -13.8125 L 12.859375 -16.609375 L 17.4375 -16.609375 L 17.4375 0.15625 C 17.4375 1.539062 17.085938 2.695312 16.390625 3.625 C 15.691406 4.5625 14.734375 5.269531 13.515625 5.75 C 12.296875 6.226562 10.894531 6.46875 9.3125 6.46875 Z M 9.421875 -3.703125 C 10.523438 -3.703125 11.378906 -4.109375 11.984375 -4.921875 C 12.597656 -5.742188 12.90625 -6.890625 12.90625 -8.359375 C 12.90625 -9.804688 12.601562 -10.96875 12 -11.84375 C 11.394531 -12.71875 10.535156 -13.15625 9.421875 -13.15625 C 8.273438 -13.15625 7.40625 -12.707031 6.8125 -11.8125 C 6.21875 -10.914062 5.921875 -9.765625 5.921875 -8.359375 C 5.921875 -6.921875 6.21875 -5.785156 6.8125 -4.953125 C 7.414062 -4.117188 8.285156 -3.703125 9.421875 -3.703125 Z M 9.421875 -3.703125 "/></g></g></g><g fill="#000000" fill-opacity="1"><g transform="translate(300.347307, 244.456358)"><g><path d="M 9.40625 0.328125 C 7.707031 0.328125 6.238281 -0.0195312 5 -0.71875 C 3.769531 -1.414062 2.820312 -2.398438 2.15625 -3.671875 C 1.5 -4.953125 1.171875 -6.46875 1.171875 -8.21875 C 1.171875 -9.925781 1.5 -11.425781 2.15625 -12.71875 C 2.820312 -14.007812 3.757812 -15.015625 4.96875 -15.734375 C 6.175781 -16.453125 7.59375 -16.8125 9.21875 -16.8125 C 10.675781 -16.8125 11.992188 -16.5 13.171875 -15.875 C 14.359375 -15.257812 15.296875 -14.328125 15.984375 -13.078125 C 16.679688 -11.828125 17.03125 -10.265625 17.03125 -8.390625 L 17.03125 -7.125 L 5.71875 -7.125 L 5.71875 -7.109375 C 5.71875 -5.867188 6.054688 -4.890625 6.734375 -4.171875 C 7.410156 -3.460938 8.328125 -3.109375 9.484375 -3.109375 C 10.253906 -3.109375 10.921875 -3.269531 11.484375 -3.59375 C 12.046875 -3.914062 12.441406 -4.394531 12.671875 -5.03125 L 16.921875 -4.75 C 16.597656 -3.207031 15.773438 -1.972656 14.453125 -1.046875 C 13.140625 -0.128906 11.457031 0.328125 9.40625 0.328125 Z M 5.71875 -9.96875 L 12.6875 -9.96875 C 12.675781 -10.957031 12.359375 -11.769531 11.734375 -12.40625 C 11.109375 -13.050781 10.296875 -13.375 9.296875 -13.375 C 8.273438 -13.375 7.4375 -13.039062 6.78125 -12.375 C 6.125 -11.71875 5.769531 -10.914062 5.71875 -9.96875 Z M 5.71875 -9.96875 "/></g></g></g><g fill="#000000" fill-opacity="1"><g transform="translate(318.536053, 244.456358)"><g><path d="M 1.84375 0 L 1.84375 -16.609375 L 6.296875 -16.609375 L 6.296875 -13.703125 L 6.46875 -13.703125 C 6.769531 -14.734375 7.273438 -15.515625 7.984375 -16.046875 C 8.703125 -16.578125 9.53125 -16.84375 10.46875 -16.84375 C 10.914062 -16.84375 11.328125 -16.785156 11.703125 -16.671875 C 12.085938 -16.566406 12.429688 -16.421875 12.734375 -16.234375 L 11.34375 -12.4375 C 11.132812 -12.539062 10.898438 -12.628906 10.640625 -12.703125 C 10.378906 -12.773438 10.09375 -12.8125 9.78125 -12.8125 C 8.851562 -12.8125 8.066406 -12.492188 7.421875 -11.859375 C 6.773438 -11.234375 6.445312 -10.410156 6.4375 -9.390625 L 6.4375 0 Z M 1.84375 0 "/></g></g></g></svg>